<mxfile host="app.diagrams.net" modified="2023-08-02T18:59:03.449Z" agent="Mozilla/5.0 (Macintosh; Intel Mac OS X 10_15_7) AppleWebKit/537.36 (KHTML, like Gecko) Chrome/115.0.0.0 Safari/537.36" etag="NNj9D3DHSlGi_48X_6KN" version="21.6.1" type="github">
  <diagram name="Page-1" id="K5Yx-MWFr-CgtCz-KE08">
    <mxGraphModel dx="1242" dy="789" grid="1" gridSize="10" guides="1" tooltips="1" connect="1" arrows="1" fold="1" page="1" pageScale="1" pageWidth="827" pageHeight="1169" math="0" shadow="0">
      <root>
        <mxCell id="0" />
        <mxCell id="1" parent="0" />
        <mxCell id="L4f1_SwFj-eXX3KA53Bz-29" value="" style="rounded=1;arcSize=10;dashed=1;fillColor=none;gradientColor=none;dashPattern=8 3 1 3;strokeWidth=2;" parent="1" vertex="1">
          <mxGeometry x="420" y="263" width="430" height="270" as="geometry" />
        </mxCell>
        <mxCell id="2gF3RtqNhWru5DEZii_x-1" value="AWS Cloud" style="points=[[0,0],[0.25,0],[0.5,0],[0.75,0],[1,0],[1,0.25],[1,0.5],[1,0.75],[1,1],[0.75,1],[0.5,1],[0.25,1],[0,1],[0,0.75],[0,0.5],[0,0.25]];outlineConnect=0;gradientColor=none;html=1;whiteSpace=wrap;fontSize=12;fontStyle=0;container=1;pointerEvents=0;collapsible=0;recursiveResize=0;shape=mxgraph.aws4.group;grIcon=mxgraph.aws4.group_aws_cloud_alt;strokeColor=#232F3E;fillColor=none;verticalAlign=top;align=left;spacingLeft=30;fontColor=#232F3E;dashed=0;" parent="1" vertex="1">
          <mxGeometry x="90" y="120" width="1110" height="590" as="geometry" />
        </mxCell>
        <mxCell id="2gF3RtqNhWru5DEZii_x-2" value="us-east-1" style="points=[[0,0],[0.25,0],[0.5,0],[0.75,0],[1,0],[1,0.25],[1,0.5],[1,0.75],[1,1],[0.75,1],[0.5,1],[0.25,1],[0,1],[0,0.75],[0,0.5],[0,0.25]];outlineConnect=0;gradientColor=none;html=1;whiteSpace=wrap;fontSize=12;fontStyle=0;container=1;pointerEvents=0;collapsible=0;recursiveResize=0;shape=mxgraph.aws4.group;grIcon=mxgraph.aws4.group_region;strokeColor=#147EBA;fillColor=none;verticalAlign=top;align=left;spacingLeft=30;fontColor=#147EBA;dashed=1;" parent="2gF3RtqNhWru5DEZii_x-1" vertex="1">
          <mxGeometry x="30" y="133" width="1040" height="430" as="geometry" />
        </mxCell>
        <mxCell id="2gF3RtqNhWru5DEZii_x-4" value="Original VPC" style="points=[[0,0],[0.25,0],[0.5,0],[0.75,0],[1,0],[1,0.25],[1,0.5],[1,0.75],[1,1],[0.75,1],[0.5,1],[0.25,1],[0,1],[0,0.75],[0,0.5],[0,0.25]];outlineConnect=0;gradientColor=none;html=1;whiteSpace=wrap;fontSize=12;fontStyle=0;container=1;pointerEvents=0;collapsible=0;recursiveResize=0;shape=mxgraph.aws4.group;grIcon=mxgraph.aws4.group_vpc;strokeColor=#248814;fillColor=none;verticalAlign=top;align=left;spacingLeft=30;fontColor=#AAB7B8;dashed=0;" parent="2gF3RtqNhWru5DEZii_x-2" vertex="1">
          <mxGeometry x="40" y="45" width="980" height="350" as="geometry" />
        </mxCell>
        <mxCell id="2gF3RtqNhWru5DEZii_x-3" value="us-east-1a" style="fillColor=none;strokeColor=#147EBA;dashed=1;verticalAlign=top;fontStyle=0;fontColor=#147EBA;whiteSpace=wrap;html=1;" parent="2gF3RtqNhWru5DEZii_x-4" vertex="1">
          <mxGeometry x="40" y="55" width="460" height="185" as="geometry" />
        </mxCell>
        <mxCell id="2gF3RtqNhWru5DEZii_x-16" value="Public subnet" style="points=[[0,0],[0.25,0],[0.5,0],[0.75,0],[1,0],[1,0.25],[1,0.5],[1,0.75],[1,1],[0.75,1],[0.5,1],[0.25,1],[0,1],[0,0.75],[0,0.5],[0,0.25]];outlineConnect=0;gradientColor=none;html=1;whiteSpace=wrap;fontSize=12;fontStyle=0;container=1;pointerEvents=0;collapsible=0;recursiveResize=0;shape=mxgraph.aws4.group;grIcon=mxgraph.aws4.group_security_group;grStroke=0;strokeColor=#248814;fillColor=#E9F3E6;verticalAlign=top;align=left;spacingLeft=30;fontColor=#248814;dashed=0;" parent="2gF3RtqNhWru5DEZii_x-4" vertex="1">
          <mxGeometry x="80" y="79.25" width="160" height="136.5" as="geometry" />
        </mxCell>
        <mxCell id="L4f1_SwFj-eXX3KA53Bz-6" value="NAT gateway" style="sketch=0;outlineConnect=0;fontColor=#232F3E;gradientColor=none;strokeColor=#232F3E;fillColor=#ffffff;dashed=0;verticalLabelPosition=bottom;verticalAlign=top;align=center;html=1;fontSize=12;fontStyle=0;aspect=fixed;shape=mxgraph.aws4.resourceIcon;resIcon=mxgraph.aws4.nat_gateway;" parent="2gF3RtqNhWru5DEZii_x-4" vertex="1">
          <mxGeometry x="140" y="118.5" width="60" height="60" as="geometry" />
        </mxCell>
        <mxCell id="L4f1_SwFj-eXX3KA53Bz-28" style="edgeStyle=orthogonalEdgeStyle;rounded=0;orthogonalLoop=1;jettySize=auto;html=1;" parent="2gF3RtqNhWru5DEZii_x-4" source="L4f1_SwFj-eXX3KA53Bz-11" target="2gF3RtqNhWru5DEZii_x-5" edge="1">
          <mxGeometry relative="1" as="geometry" />
        </mxCell>
        <mxCell id="L4f1_SwFj-eXX3KA53Bz-11" value="Route table" style="sketch=0;outlineConnect=0;fontColor=#232F3E;gradientColor=none;strokeColor=#232F3E;fillColor=#ffffff;dashed=0;verticalLabelPosition=bottom;verticalAlign=top;align=center;html=1;fontSize=12;fontStyle=0;aspect=fixed;shape=mxgraph.aws4.resourceIcon;resIcon=mxgraph.aws4.route_table;" parent="2gF3RtqNhWru5DEZii_x-4" vertex="1">
          <mxGeometry x="344.5" y="250" width="60" height="60" as="geometry" />
        </mxCell>
        <mxCell id="L4f1_SwFj-eXX3KA53Bz-27" style="edgeStyle=orthogonalEdgeStyle;rounded=0;orthogonalLoop=1;jettySize=auto;html=1;" parent="2gF3RtqNhWru5DEZii_x-4" source="L4f1_SwFj-eXX3KA53Bz-10" target="2gF3RtqNhWru5DEZii_x-16" edge="1">
          <mxGeometry relative="1" as="geometry" />
        </mxCell>
        <mxCell id="L4f1_SwFj-eXX3KA53Bz-10" value="Route table" style="sketch=0;outlineConnect=0;fontColor=#232F3E;gradientColor=none;strokeColor=#232F3E;fillColor=#ffffff;dashed=0;verticalLabelPosition=bottom;verticalAlign=top;align=center;html=1;fontSize=12;fontStyle=0;aspect=fixed;shape=mxgraph.aws4.resourceIcon;resIcon=mxgraph.aws4.route_table;" parent="2gF3RtqNhWru5DEZii_x-4" vertex="1">
          <mxGeometry x="132" y="255" width="55" height="55" as="geometry" />
        </mxCell>
        <mxCell id="L4f1_SwFj-eXX3KA53Bz-14" value="Route table" style="sketch=0;outlineConnect=0;fontColor=#232F3E;gradientColor=none;strokeColor=#232F3E;fillColor=#ffffff;dashed=0;verticalLabelPosition=bottom;verticalAlign=top;align=center;html=1;fontSize=12;fontStyle=0;aspect=fixed;shape=mxgraph.aws4.resourceIcon;resIcon=mxgraph.aws4.route_table;" parent="2gF3RtqNhWru5DEZii_x-4" vertex="1">
          <mxGeometry x="585" y="250" width="60" height="60" as="geometry" />
        </mxCell>
        <mxCell id="L4f1_SwFj-eXX3KA53Bz-15" value="Route table" style="sketch=0;outlineConnect=0;fontColor=#232F3E;gradientColor=none;strokeColor=#232F3E;fillColor=#ffffff;dashed=0;verticalLabelPosition=bottom;verticalAlign=top;align=center;html=1;fontSize=12;fontStyle=0;aspect=fixed;shape=mxgraph.aws4.resourceIcon;resIcon=mxgraph.aws4.route_table;" parent="2gF3RtqNhWru5DEZii_x-4" vertex="1">
          <mxGeometry x="759" y="250" width="60" height="60" as="geometry" />
        </mxCell>
        <mxCell id="2gF3RtqNhWru5DEZii_x-5" value="Private subnet" style="points=[[0,0],[0.25,0],[0.5,0],[0.75,0],[1,0],[1,0.25],[1,0.5],[1,0.75],[1,1],[0.75,1],[0.5,1],[0.25,1],[0,1],[0,0.75],[0,0.5],[0,0.25]];outlineConnect=0;gradientColor=none;html=1;whiteSpace=wrap;fontSize=12;fontStyle=0;container=1;pointerEvents=0;collapsible=0;recursiveResize=0;shape=mxgraph.aws4.group;grIcon=mxgraph.aws4.group_security_group;grStroke=0;strokeColor=#147EBA;fillColor=#E6F2F8;verticalAlign=top;align=left;spacingLeft=30;fontColor=#147EBA;dashed=0;" parent="2gF3RtqNhWru5DEZii_x-4" vertex="1">
          <mxGeometry x="290" y="82" width="169" height="133" as="geometry" />
        </mxCell>
        <mxCell id="L4f1_SwFj-eXX3KA53Bz-25" value="Amazon EC2" style="sketch=0;outlineConnect=0;fontColor=#232F3E;gradientColor=none;strokeColor=#ffffff;fillColor=#232F3E;dashed=0;verticalLabelPosition=middle;verticalAlign=bottom;align=center;html=1;whiteSpace=wrap;fontSize=10;fontStyle=1;spacing=3;shape=mxgraph.aws4.productIcon;prIcon=mxgraph.aws4.ec2;" parent="2gF3RtqNhWru5DEZii_x-5" vertex="1">
          <mxGeometry x="40" y="28.5" width="60" height="73" as="geometry" />
        </mxCell>
        <mxCell id="L4f1_SwFj-eXX3KA53Bz-34" style="edgeStyle=orthogonalEdgeStyle;rounded=0;orthogonalLoop=1;jettySize=auto;html=1;" parent="2gF3RtqNhWru5DEZii_x-4" source="L4f1_SwFj-eXX3KA53Bz-32" target="L4f1_SwFj-eXX3KA53Bz-25" edge="1">
          <mxGeometry relative="1" as="geometry">
            <Array as="points">
              <mxPoint x="440" y="295" />
              <mxPoint x="440" y="147" />
            </Array>
          </mxGeometry>
        </mxCell>
        <mxCell id="L4f1_SwFj-eXX3KA53Bz-32" value="Application Load Balancer" style="sketch=0;outlineConnect=0;fontColor=#232F3E;gradientColor=none;strokeColor=#ffffff;fillColor=#232F3E;dashed=0;verticalLabelPosition=middle;verticalAlign=bottom;align=center;html=1;whiteSpace=wrap;fontSize=10;fontStyle=1;spacing=3;shape=mxgraph.aws4.productIcon;prIcon=mxgraph.aws4.application_load_balancer;" parent="2gF3RtqNhWru5DEZii_x-4" vertex="1">
          <mxGeometry x="470" y="240" width="80" height="110" as="geometry" />
        </mxCell>
        <mxCell id="L4f1_SwFj-eXX3KA53Bz-9" value="Internet&#xa;gateway" style="sketch=0;outlineConnect=0;fontColor=#232F3E;gradientColor=none;strokeColor=#232F3E;fillColor=#ffffff;dashed=0;verticalLabelPosition=bottom;verticalAlign=top;align=center;html=1;fontSize=12;fontStyle=0;aspect=fixed;shape=mxgraph.aws4.resourceIcon;resIcon=mxgraph.aws4.internet_gateway;" parent="2gF3RtqNhWru5DEZii_x-2" vertex="1">
          <mxGeometry x="1020" y="200" width="60" height="60" as="geometry" />
        </mxCell>
        <mxCell id="FpefazxUD7iuXqopsc2Z-3" value="" style="sketch=0;outlineConnect=0;fontColor=#232F3E;gradientColor=none;fillColor=#3F8624;strokeColor=none;dashed=0;verticalLabelPosition=bottom;verticalAlign=top;align=center;html=1;fontSize=12;fontStyle=0;aspect=fixed;pointerEvents=1;shape=mxgraph.aws4.bucket;" parent="2gF3RtqNhWru5DEZii_x-1" vertex="1">
          <mxGeometry x="340" y="30" width="55.77" height="58" as="geometry" />
        </mxCell>
        <mxCell id="L4f1_SwFj-eXX3KA53Bz-43" style="edgeStyle=orthogonalEdgeStyle;rounded=0;orthogonalLoop=1;jettySize=auto;html=1;" parent="2gF3RtqNhWru5DEZii_x-1" source="L4f1_SwFj-eXX3KA53Bz-39" target="FpefazxUD7iuXqopsc2Z-3" edge="1">
          <mxGeometry relative="1" as="geometry" />
        </mxCell>
        <mxCell id="L4f1_SwFj-eXX3KA53Bz-39" value="" style="sketch=0;outlineConnect=0;fontColor=#232F3E;gradientColor=none;fillColor=#BF0816;strokeColor=none;dashed=0;verticalLabelPosition=bottom;verticalAlign=top;align=center;html=1;fontSize=12;fontStyle=0;aspect=fixed;pointerEvents=1;shape=mxgraph.aws4.role;" parent="2gF3RtqNhWru5DEZii_x-1" vertex="1">
          <mxGeometry x="470" y="60" width="49.64" height="28" as="geometry" />
        </mxCell>
        <mxCell id="L4f1_SwFj-eXX3KA53Bz-8" value="" style="sketch=0;outlineConnect=0;fontColor=#232F3E;gradientColor=none;fillColor=#232F3D;strokeColor=none;dashed=0;verticalLabelPosition=bottom;verticalAlign=top;align=center;html=1;fontSize=12;fontStyle=0;aspect=fixed;pointerEvents=1;shape=mxgraph.aws4.internet_alt2;" parent="1" vertex="1">
          <mxGeometry x="1202" y="443" width="78" height="78" as="geometry" />
        </mxCell>
        <mxCell id="2gF3RtqNhWru5DEZii_x-7" value="us-east-1b" style="fillColor=none;strokeColor=#147EBA;dashed=1;verticalAlign=top;fontStyle=0;fontColor=#147EBA;whiteSpace=wrap;html=1;" parent="1" vertex="1">
          <mxGeometry x="670" y="353" width="460" height="190" as="geometry" />
        </mxCell>
        <mxCell id="2gF3RtqNhWru5DEZii_x-6" value="Public subnet" style="points=[[0,0],[0.25,0],[0.5,0],[0.75,0],[1,0],[1,0.25],[1,0.5],[1,0.75],[1,1],[0.75,1],[0.5,1],[0.25,1],[0,1],[0,0.75],[0,0.5],[0,0.25]];outlineConnect=0;gradientColor=none;html=1;whiteSpace=wrap;fontSize=12;fontStyle=0;container=1;pointerEvents=0;collapsible=0;recursiveResize=0;shape=mxgraph.aws4.group;grIcon=mxgraph.aws4.group_security_group;grStroke=0;strokeColor=#248814;fillColor=#E9F3E6;verticalAlign=top;align=left;spacingLeft=30;fontColor=#248814;dashed=0;" parent="1" vertex="1">
          <mxGeometry x="884" y="380" width="130" height="130" as="geometry" />
        </mxCell>
        <mxCell id="L4f1_SwFj-eXX3KA53Bz-7" value="NAT gateway" style="sketch=0;outlineConnect=0;fontColor=#232F3E;gradientColor=none;strokeColor=#232F3E;fillColor=#ffffff;dashed=0;verticalLabelPosition=bottom;verticalAlign=top;align=center;html=1;fontSize=12;fontStyle=0;aspect=fixed;shape=mxgraph.aws4.resourceIcon;resIcon=mxgraph.aws4.nat_gateway;" parent="2gF3RtqNhWru5DEZii_x-6" vertex="1">
          <mxGeometry x="37" y="34" width="60" height="60" as="geometry" />
        </mxCell>
        <mxCell id="2gF3RtqNhWru5DEZii_x-23" value="Private subnet" style="points=[[0,0],[0.25,0],[0.5,0],[0.75,0],[1,0],[1,0.25],[1,0.5],[1,0.75],[1,1],[0.75,1],[0.5,1],[0.25,1],[0,1],[0,0.75],[0,0.5],[0,0.25]];outlineConnect=0;gradientColor=none;html=1;whiteSpace=wrap;fontSize=12;fontStyle=0;container=1;pointerEvents=0;collapsible=0;recursiveResize=0;shape=mxgraph.aws4.group;grIcon=mxgraph.aws4.group_security_group;grStroke=0;strokeColor=#147EBA;fillColor=#E6F2F8;verticalAlign=top;align=left;spacingLeft=30;fontColor=#147EBA;dashed=0;" parent="1" vertex="1">
          <mxGeometry x="710" y="380" width="130" height="130" as="geometry" />
        </mxCell>
        <mxCell id="L4f1_SwFj-eXX3KA53Bz-23" style="edgeStyle=orthogonalEdgeStyle;rounded=0;orthogonalLoop=1;jettySize=auto;html=1;" parent="1" source="L4f1_SwFj-eXX3KA53Bz-14" target="2gF3RtqNhWru5DEZii_x-23" edge="1">
          <mxGeometry relative="1" as="geometry" />
        </mxCell>
        <mxCell id="L4f1_SwFj-eXX3KA53Bz-24" style="edgeStyle=orthogonalEdgeStyle;rounded=0;orthogonalLoop=1;jettySize=auto;html=1;" parent="1" source="L4f1_SwFj-eXX3KA53Bz-15" target="2gF3RtqNhWru5DEZii_x-6" edge="1">
          <mxGeometry relative="1" as="geometry" />
        </mxCell>
        <mxCell id="L4f1_SwFj-eXX3KA53Bz-26" value="Amazon EC2" style="sketch=0;outlineConnect=0;fontColor=#232F3E;gradientColor=none;strokeColor=#ffffff;fillColor=#232F3E;dashed=0;verticalLabelPosition=middle;verticalAlign=bottom;align=center;html=1;whiteSpace=wrap;fontSize=10;fontStyle=1;spacing=3;shape=mxgraph.aws4.productIcon;prIcon=mxgraph.aws4.ec2;" parent="1" vertex="1">
          <mxGeometry x="745" y="418" width="60" height="73" as="geometry" />
        </mxCell>
        <mxCell id="L4f1_SwFj-eXX3KA53Bz-42" style="edgeStyle=orthogonalEdgeStyle;rounded=0;orthogonalLoop=1;jettySize=auto;html=1;exitX=0.559;exitY=0.001;exitDx=0;exitDy=0;exitPerimeter=0;" parent="1" source="L4f1_SwFj-eXX3KA53Bz-29" target="L4f1_SwFj-eXX3KA53Bz-39" edge="1">
          <mxGeometry relative="1" as="geometry" />
        </mxCell>
        <mxCell id="L4f1_SwFj-eXX3KA53Bz-31" value="AWS Auto Scaling" style="sketch=0;outlineConnect=0;fontColor=#232F3E;gradientColor=none;strokeColor=#ffffff;fillColor=#232F3E;dashed=0;verticalLabelPosition=middle;verticalAlign=bottom;align=center;html=1;whiteSpace=wrap;fontSize=10;fontStyle=1;spacing=3;shape=mxgraph.aws4.productIcon;prIcon=mxgraph.aws4.autoscaling;" parent="1" vertex="1">
          <mxGeometry x="630" y="273" width="55" height="80" as="geometry" />
        </mxCell>
        <mxCell id="L4f1_SwFj-eXX3KA53Bz-35" style="edgeStyle=orthogonalEdgeStyle;rounded=0;orthogonalLoop=1;jettySize=auto;html=1;" parent="1" source="L4f1_SwFj-eXX3KA53Bz-32" target="L4f1_SwFj-eXX3KA53Bz-26" edge="1">
          <mxGeometry relative="1" as="geometry">
            <Array as="points">
              <mxPoint x="730" y="593" />
              <mxPoint x="730" y="460" />
            </Array>
          </mxGeometry>
        </mxCell>
        <mxCell id="L4f1_SwFj-eXX3KA53Bz-36" value="Security group" style="fillColor=none;strokeColor=#DD3522;verticalAlign=top;fontStyle=0;fontColor=#DD3522;whiteSpace=wrap;html=1;" parent="1" vertex="1">
          <mxGeometry x="480" y="403" width="340" height="90" as="geometry" />
        </mxCell>
        <mxCell id="L4f1_SwFj-eXX3KA53Bz-38" value="Security group" style="fillColor=none;strokeColor=#DD3522;verticalAlign=top;fontStyle=0;fontColor=#DD3522;whiteSpace=wrap;html=1;" parent="1" vertex="1">
          <mxGeometry x="620" y="510" width="100" height="143" as="geometry" />
        </mxCell>
      </root>
    </mxGraphModel>
  </diagram>
</mxfile>
